<svg xmlns="http://www.w3.org/2000/svg" xmlns:xlink="http://www.w3.org/1999/xlink" width="52" height="52" viewBox="0 0 52 52"><defs><style>.cls-1,.cls-5,.cls-8,.cls-9{fill:#a5a5a5;}.cls-1,.cls-11,.cls-2{opacity:0;}.cls-10,.cls-11,.cls-14,.cls-2{fill:none;}.cls-2{stroke:#231f20;stroke-width:0.1px;}.cls-11,.cls-2{stroke-miterlimit:10;}.cls-3{fill:#666;}.cls-4{fill:#8c8c8c;}.cls-6{fill:#231f20;}.cls-12,.cls-6,.cls-9{opacity:0.25;}.cls-7{fill:#ccc;}.cls-8,.cls-9{mix-blend-mode:screen;}.cls-10{stroke:#c8c8c8;stroke-linecap:round;stroke-linejoin:round;stroke-width:2px;}.cls-11{stroke:red;stroke-width:1.04px;}.cls-13{fill:#fff;}</style><symbol id="League_Silver_Small" data-name="League_Silver_Small" viewBox="0 0 52.1 52.1"><g id="League_Silver"><polygon class="cls-1" points="8.04 15.73 26.05 5.33 44.07 15.73 44.07 36.53 26.05 46.93 8.04 36.53 8.04 15.73"/><rect class="cls-2" x="0.05" y="0.05" width="52" height="52"/><polygon class="cls-3" points="12.01 35.71 26.05 43.81 40.09 35.71 40.09 14.85 12.01 14.85 12.01 35.71"/><polyline class="cls-4" points="38.8 14.85 38.8 18.75 13.31 18.75 13.31 14.74"/><polygon class="cls-5" points="13.31 39.58 26.05 46.93 38.8 39.58 38.8 18.75 13.31 18.75 13.31 39.58"/><rect class="cls-6" x="12.01" y="20.82" width="1.3" height="1.12"/><rect class="cls-6" x="38.8" y="20.82" width="1.3" height="1.12"/><polygon class="cls-7" points="38.99 39.46 26.05 46.93 13.11 39.46 26.05 47.36 38.99 39.46"/><path class="cls-8" d="M13.31,39.58l4.52,2.76L15,39.54V18.75H13.31ZM37.08,18.75v21L34,42.51l4.79-2.93V18.75Z"/><polygon class="cls-8" points="22.86 18.75 26.05 16.9 29.25 18.75 29.25 45.09 26.05 46.93 22.86 45.09 22.86 18.75"/><path class="cls-9" d="M15,19v-4.1H13.31V19M38.8,19V14.85H37.08V19"/><line class="cls-10" x1="41.82" y1="14.85" x2="10.28" y2="14.85"/><polygon class="cls-10" points="21.78 12.41 19.47 9.12 21.78 7.78 24.1 9.12 21.78 12.41"/><line class="cls-10" x1="21.78" y1="12.41" x2="21.78" y2="14.37"/><polygon class="cls-10" points="30.19 12.41 27.88 9.12 30.19 7.78 32.51 9.12 30.19 12.41"/><line class="cls-10" x1="30.19" y1="12.41" x2="30.19" y2="14.37"/></g></symbol><symbol id="Position_4_Small" data-name="Position_4_Small" viewBox="0 0 52.1 52.1"><g id="Position_4"><polygon class="cls-11" points="8.04 15.73 26.05 5.33 44.07 15.73 44.07 36.53 26.05 46.93 8.04 36.53 8.04 15.73"/><polygon class="cls-11" points="11.28 34.66 26.05 26.13 40.82 34.66 40.82 34.66 26.05 43.19 11.28 34.66 11.28 34.66"/><rect class="cls-2" x="0.05" y="0.05" width="52" height="52"/><polygon class="cls-12" points="33.39 42.7 33.39 22.98 26.05 22.98 18.72 22.98 18.72 42.7 26.05 46.93 33.39 42.7"/><polygon points="34.05 40.32 34.05 15.28 26.05 15.28 18.05 15.28 18.05 40.32 26.05 44.94 34.05 40.32"/><path class="cls-13" d="M21.16,32.18V22h1.92v10.2Z"/><path class="cls-13" d="M27.68,32.21,25.76,22h1.92l.75,4.27.35,2.38.32-2.37L29.87,22h1.86L29.82,32.21Z"/><polygon class="cls-14" points="40.09 15.73 26.05 15.72 12.01 15.73 12.01 38.83 26.05 46.93 40.09 38.83 40.09 15.73"/></g></symbol></defs><title>Silver - 4 - Small</title><g id="Bases"><use width="52.1" height="52.1" transform="translate(-0.05 -0.05)" xlink:href="#League_Silver_Small"/></g><g id="Compound"><g id="Rank_Copper_4_Small-4" data-name="Rank_Copper_4_Small"><g id="Rank_Copper_4-5" data-name="Rank_Copper_4"><use width="52.1" height="52.1" transform="translate(-0.05 0.52)" xlink:href="#Position_4_Small"/></g></g></g></svg>