<svg xmlns="http://www.w3.org/2000/svg" xmlns:xlink="http://www.w3.org/1999/xlink" width="52" height="52" viewBox="0 0 52 52"><defs><style>.cls-1,.cls-10,.cls-11{fill:#edaf35;}.cls-1,.cls-15,.cls-2{opacity:0;}.cls-12,.cls-13,.cls-14,.cls-15,.cls-2{fill:none;}.cls-2{stroke:#231f20;stroke-width:0.1px;}.cls-15,.cls-2{stroke-miterlimit:10;}.cls-3,.cls-8{fill:#b79f27;}.cls-4,.cls-7{fill:#efda3f;}.cls-10,.cls-11,.cls-4,.cls-8{mix-blend-mode:screen;}.cls-5{fill:#e6c815;}.cls-6{fill:#231f20;}.cls-11,.cls-16,.cls-6{opacity:0.25;}.cls-9{fill:#fff;}.cls-12{stroke:#c8c8c8;}.cls-12,.cls-13,.cls-14{stroke-linecap:round;stroke-linejoin:round;}.cls-12,.cls-13{stroke-width:2px;}.cls-13,.cls-14{stroke:#fff;}.cls-14{stroke-width:1.8px;}.cls-15{stroke:red;stroke-width:1.04px;}</style><symbol id="League_Gold_Small_2" data-name="League_Gold_Small 2" viewBox="0 0 52.1 52.16"><g id="League_Gold"><polygon class="cls-1" points="44.07 36.59 26.05 46.99 8.04 36.59 8.04 15.79 26.05 5.39 44.07 15.79 44.07 36.59"/><polygon class="cls-2" points="52.05 52.11 0.05 52.05 0.05 0.05 52.05 0.11 52.05 52.11"/><polygon class="cls-3" points="12.01 46.99 26.05 43.87 40.09 46.99 40.09 14.91 12.01 14.91 12.01 46.99"/><polyline class="cls-3" points="38.8 14.91 38.8 18.81 13.31 18.81 13.31 14.8"/><polygon class="cls-4" points="40.1 46.99 40.1 45.41 26.05 42.29 12.01 45.41 12.01 46.99 26.05 43.87 40.1 46.99"/><polygon class="cls-5" points="13.31 39.64 26.05 46.99 38.8 39.64 38.8 18.81 13.31 18.81 13.31 39.64"/><rect class="cls-6" x="12.01" y="20.88" width="1.3" height="1.12"/><rect class="cls-6" x="38.8" y="20.88" width="1.3" height="1.12"/><path class="cls-6" d="M13.31,41.71l6.25,3.61,2.59-.58-8.84-5.1Zm16.64,3,2.6.58,6.25-3.61V39.64Z"/><polygon class="cls-7" points="38.99 39.52 26.05 46.99 13.11 39.52 26.05 47.42 38.99 39.52"/><path class="cls-8" d="M13.31,39.64l4.52,2.76L15,39.6V18.81H13.31ZM37.08,18.81v21L34,42.57l4.79-2.93V18.81Z"/><polygon class="cls-3" points="38.99 39.64 38.99 36.1 26.05 28.63 13.11 36.1 13.11 39.64 26.05 32.17 38.99 39.64"/><polygon class="cls-6" points="13.11 39.64 26.05 32.17 38.99 39.64 26.05 33.03 13.11 39.64"/><polygon class="cls-9" points="13.11 39.64 26.05 32.17 38.99 39.64 26.05 31.74 13.11 39.64"/><path class="cls-10" d="M15,38.53V35l-.89.51v3.56M38,39v-3.5L37.08,35v3.53"/><path class="cls-11" d="M15,19v-4.1H13.31V19M38.8,19V14.91H37.08v4.14"/><line class="cls-12" x1="41.82" y1="14.91" x2="10.28" y2="14.91"/><polyline class="cls-12" points="20.24 12.68 18.17 9.74 20.24 8.55"/><line class="cls-12" x1="20.24" y1="12.68" x2="20.24" y2="14.43"/><polyline class="cls-12" points="31.74 8.55 33.81 9.74 31.74 12.68"/><line class="cls-12" x1="31.74" y1="12.68" x2="31.74" y2="14.43"/><polygon class="cls-13" points="26.05 11.34 23.08 7.11 26.05 5.39 29.03 7.11 26.05 11.34"/><line class="cls-14" x1="26.05" y1="11.34" x2="26.05" y2="13.86"/></g></symbol><symbol id="Position_2_Small" data-name="Position_2_Small" viewBox="0 0 52.1 52.1"><g id="Position_2"><polygon class="cls-9" points="12.09 36.97 26.05 45.04 40.02 36.97 40.02 38.87 26.05 46.93 12.09 38.87 12.09 36.97"/><rect class="cls-2" x="0.05" y="0.05" width="52" height="52"/><polygon class="cls-15" points="8.04 15.73 26.05 5.33 44.07 15.73 44.07 36.53 26.05 46.93 8.04 36.53 8.04 15.73"/><polygon class="cls-16" points="33.39 42.7 33.39 23.05 26.05 23.05 18.72 23.05 18.72 42.7 26.05 46.93 33.39 42.7"/><polygon points="34.05 40.32 34.05 15.28 26.05 15.28 18.05 15.28 18.05 40.32 26.05 44.94 34.05 40.32"/><path class="cls-9" d="M22.55,32V21.82h1.93V32Z"/><path class="cls-9" d="M27.63,32V21.82h1.92V32Z"/><polygon class="cls-9" points="12.09 33.18 26.05 41.24 40.02 33.18 40.02 35.08 26.05 43.14 12.09 35.08 12.09 33.18"/></g></symbol></defs><title>Gold - 2 - Small</title><g id="Bases"><use width="52.1" height="52.16" transform="translate(-0.05 -0.11)" xlink:href="#League_Gold_Small_2"/></g><g id="Compound"><use width="52.1" height="52.1" transform="translate(-0.05 0.52)" xlink:href="#Position_2_Small"/></g></svg>