<svg xmlns="http://www.w3.org/2000/svg" xmlns:xlink="http://www.w3.org/1999/xlink" width="52" height="52" viewBox="0 0 52 52"><defs><style>.cls-1,.cls-11{fill:#edd6ae;}.cls-1,.cls-16,.cls-3{opacity:0;}.cls-12,.cls-13,.cls-15,.cls-17,.cls-2,.cls-3{fill:none;}.cls-2{stroke:#61d4d4;}.cls-12,.cls-13,.cls-2{stroke-linecap:round;}.cls-12,.cls-13,.cls-15,.cls-2{stroke-linejoin:round;stroke-width:2px;}.cls-15,.cls-3{stroke:#231f20;}.cls-17,.cls-3{stroke-miterlimit:10;}.cls-3{stroke-width:0.1px;}.cls-4{fill:#14827f;}.cls-5{fill:#11a5a1;}.cls-6{fill:#afebeb;}.cls-11,.cls-6{mix-blend-mode:screen;}.cls-7{fill:#44ccc2;}.cls-19,.cls-8{fill:#231f20;}.cls-11,.cls-14,.cls-18,.cls-8{opacity:0.25;}.cls-9{fill:#fff;}.cls-10{fill:#4aafac;}.cls-12{stroke:#c8c8c8;}.cls-13{stroke:#fff;}.cls-17{stroke:red;stroke-width:0.03px;}</style><symbol id="League_Platinum_Small_2" data-name="League_Platinum_Small 2" viewBox="0 0 52.1 52.1"><g id="League_Platinum"><polygon class="cls-1" points="44.07 36.53 26.05 46.93 8.04 36.53 8.04 15.73 26.05 5.33 44.07 15.73 44.07 36.53"/><polyline class="cls-2" points="44.07 19.89 44.07 36.53 26.05 46.93 8.04 36.53 8.04 19.89"/><line class="cls-2" x1="8.04" y1="19.89" x2="13.11" y2="19.89"/><line class="cls-2" x1="38.99" y1="19.89" x2="44.07" y2="19.89"/><rect class="cls-3" x="0.05" y="0.05" width="52" height="52"/><polygon class="cls-4" points="12.01 47.15 26.05 43.67 40.09 47.15 40.09 14.85 12.01 14.85 12.01 47.15"/><polyline class="cls-5" points="38.8 14.85 38.8 18.75 13.31 18.75 13.31 14.74"/><polygon class="cls-6" points="40.09 47.15 40.09 45.57 26.05 42.45 12.01 45.57 12.01 47.15 26.05 44.03 40.09 47.15"/><polygon class="cls-6" points="40.09 43.99 40.09 42.41 26.05 39.29 12.01 42.41 12.01 43.99 26.05 40.87 40.09 43.99"/><polygon class="cls-7" points="13.31 39.58 26.05 46.93 38.8 39.58 38.8 18.75 13.31 18.75 13.31 39.58"/><rect class="cls-8" x="12.01" y="20.82" width="1.3" height="1.12"/><rect class="cls-8" x="38.8" y="20.82" width="1.3" height="1.12"/><path class="cls-8" d="M13.31,41.65l6.25,3.61,2.59-.58-8.84-5.1Zm16.64,3,2.6.58,6.25-3.61V39.58Z"/><polygon class="cls-9" points="38.99 39.46 26.05 46.93 13.11 39.46 26.05 47.36 38.99 39.46"/><polygon class="cls-10" points="38.99 39.79 38.99 36.25 26.05 28.78 13.11 36.25 13.11 39.79 26.05 32.32 38.99 39.79"/><polygon class="cls-8" points="13.11 39.79 26.05 32.32 38.99 39.79 26.05 33.18 13.11 39.79"/><polygon class="cls-9" points="13.11 39.79 26.05 32.32 38.99 39.79 26.05 31.89 13.11 39.79"/><polygon class="cls-10" points="38.99 32.84 38.99 29.3 26.05 21.83 13.11 29.3 13.11 32.84 26.05 25.37 38.99 32.84"/><polygon class="cls-8" points="13.11 32.84 26.05 25.37 38.99 32.84 26.05 26.23 13.11 32.84"/><polygon class="cls-9" points="13.11 32.84 26.05 25.37 38.99 32.84 26.05 24.94 13.11 32.84"/><path class="cls-11" d="M15,19v-4.1H13.31V19M38.8,19V14.85H37.08V19"/><line class="cls-12" x1="41.82" y1="14.85" x2="10.28" y2="14.85"/><line class="cls-13" x1="17.31" y1="10.38" x2="14.28" y2="10.38"/><line class="cls-13" x1="37.82" y1="10.38" x2="34.79" y2="10.38"/><g class="cls-14"><line class="cls-15" x1="33.04" y1="14.85" x2="19.06" y2="14.85"/></g><polygon class="cls-13" points="26.05 2.62 27.46 6.95 32.01 6.95 28.33 9.63 29.74 13.96 26.05 11.28 22.37 13.96 23.78 9.63 20.09 6.95 24.64 6.95 26.05 2.62"/></g></symbol><symbol id="Position_1_Small" data-name="Position_1_Small" viewBox="0 0 52.1 52.1"><g id="Position_1"><polygon class="cls-9" points="11.95 36.88 26.05 45.02 40.15 36.88 40.15 38.79 26.05 46.93 11.95 38.79 11.95 36.88"/><g class="cls-16"><polygon class="cls-17" points="8.04 15.73 26.05 5.33 44.07 15.73 44.07 36.53 26.05 46.93 8.04 36.53 8.04 15.73"/><polygon class="cls-17" points="11.28 34.66 26.05 26.13 40.82 34.66 40.82 34.66 26.05 43.19 11.28 34.66 11.28 34.66"/></g><rect class="cls-3" x="0.05" y="0.05" width="52" height="52"/><polygon class="cls-18" points="33.39 42.59 33.39 23.06 26.05 23.06 18.72 23.06 18.72 42.59 26.05 46.83 33.39 42.59"/><polygon points="34.05 40.21 34.05 15.28 26.05 15.28 18.05 15.28 18.05 40.21 26.05 44.83 34.05 40.21"/><polygon class="cls-9" points="11.95 33.05 26.05 41.19 40.15 33.05 40.15 34.96 26.05 43.1 11.95 34.96 11.95 33.05"/><polygon class="cls-19" points="33.52 34.96 26.05 30.66 18.59 34.96 18.59 33.05 26.05 28.74 33.52 33.05 33.52 34.96"/><polygon class="cls-9" points="11.95 29.22 26.05 37.36 40.15 29.22 40.15 31.13 26.05 39.27 11.95 31.13 11.95 29.22"/><polygon class="cls-9" points="25.95 19.98 27.44 24.57 32.27 24.57 28.36 27.41 29.86 32 25.95 29.16 22.05 32 23.54 27.41 19.63 24.57 24.46 24.57 25.95 19.98"/></g></symbol></defs><title>Platinum - 1 - Small</title><g id="Bases"><use width="52.1" height="52.1" transform="translate(0.01 -0.58)" xlink:href="#League_Platinum_Small_2"/></g><g id="Compound"><use width="52.1" height="52.1" transform="translate(-0.05 -0.01)" xlink:href="#Position_1_Small"/></g></svg>