<svg id="Bases" xmlns="http://www.w3.org/2000/svg" xmlns:xlink="http://www.w3.org/1999/xlink" width="52" height="52" viewBox="0 0 52 52"><defs><style>.cls-1,.cls-11,.cls-14,.cls-16,.cls-17,.cls-2{fill:none;}.cls-1{stroke:#ceb2ff;}.cls-1,.cls-14,.cls-17{stroke-linecap:round;}.cls-1,.cls-14,.cls-16,.cls-17{stroke-linejoin:round;stroke-width:2px;}.cls-16,.cls-2{stroke:#231f20;}.cls-11,.cls-2{stroke-miterlimit:10;}.cls-2{stroke-width:0.1px;}.cls-10,.cls-2{opacity:0;}.cls-3{fill:#9d7df4;}.cls-4{fill:#8975c6;}.cls-5{fill:#ceb2ff;}.cls-6{fill:#231f20;}.cls-12,.cls-15,.cls-6,.cls-7{opacity:0.25;}.cls-7{fill:#9dbbae;mix-blend-mode:screen;}.cls-8{fill:#b194ff;}.cls-9{fill:#fff;}.cls-11{stroke:red;stroke-width:0.03px;}.cls-13{fill:#e3cfff;}.cls-14{stroke:#c8c8c8;}.cls-17{stroke:#fff;}</style><symbol id="League_Diamond_Small_2" data-name="League_Diamond_Small 2" viewBox="0 0 52.1 52.1"><g id="League_Diamond"><polyline class="cls-1" points="44.07 19.89 44.07 36.53 26.05 46.93 8.04 36.53 8.04 19.89"/><line class="cls-1" x1="8.04" y1="19.89" x2="13.11" y2="19.89"/><line class="cls-1" x1="38.99" y1="19.89" x2="44.07" y2="19.89"/><rect class="cls-2" x="0.05" y="0.05" width="52" height="52"/><polygon class="cls-3" points="12.01 47.15 26.05 43.67 40.09 47.15 40.09 14.85 12.01 14.85 12.01 47.15"/><polyline class="cls-4" points="38.8 14.85 38.8 18.75 13.31 18.75 13.31 14.74"/><polygon class="cls-5" points="13.31 39.58 26.05 46.93 38.8 39.58 38.8 18.75 13.31 18.75 13.31 39.58"/><rect class="cls-6" x="12.01" y="20.82" width="1.3" height="1.12"/><rect class="cls-6" x="38.8" y="20.82" width="1.3" height="1.12"/><path class="cls-6" d="M13.31,41.65l6.25,3.61,2.59-.58-8.84-5.1Zm16.64,3,2.6.58,6.25-3.61V39.58Z"/><path class="cls-7" d="M15,19v-4.1H13.31V19M38.8,19V14.85H37.08V19"/><polygon class="cls-8" points="38.99 41.87 38.99 38.33 26.05 30.86 13.11 38.33 13.11 41.87 26.05 34.4 38.99 41.87"/><polygon class="cls-6" points="13.11 41.87 26.05 34.4 38.99 41.87 26.05 35.26 13.11 41.87"/><polygon class="cls-9" points="13.11 41.87 26.05 34.4 38.99 41.87 26.05 33.97 13.11 41.87"/><polygon class="cls-8" points="38.99 34.92 38.99 31.38 26.05 23.91 13.11 31.38 13.11 34.92 26.05 27.45 38.99 34.92"/><polygon class="cls-6" points="13.11 34.92 26.05 27.45 38.99 34.92 26.05 28.31 13.11 34.92"/><polygon class="cls-9" points="13.11 34.92 26.05 27.45 38.99 34.92 26.05 27.02 13.11 34.92"/><polygon class="cls-8" points="38.99 28.07 38.99 24.53 26.05 17.06 13.11 24.53 13.11 28.07 26.05 20.59 38.99 28.07"/><polygon class="cls-6" points="13.11 28.07 26.05 20.59 38.99 28.07 26.05 21.45 13.11 28.07"/><polygon class="cls-9" points="13.11 28.07 26.05 20.59 38.99 28.07 26.05 20.17 13.11 28.07"/></g></symbol></defs><title>Diamond - Small</title><use width="52.1" height="52.1" transform="translate(-0.29 0.45)" xlink:href="#League_Diamond_Small_2"/><g class="cls-10"><polygon class="cls-11" points="7.75 16.64 25.76 6.24 43.78 16.64 43.78 37.44 25.76 47.84 7.75 37.44 7.75 16.64"/><polygon class="cls-11" points="10.99 35.57 25.76 27.04 40.53 35.57 40.53 35.57 25.76 44.1 10.99 35.57 10.99 35.57"/></g><rect class="cls-2" x="-0.24" y="0.96" width="52" height="52"/><polygon class="cls-12" points="33.1 43.5 33.1 23.97 25.76 23.97 18.43 23.97 18.43 43.5 25.76 47.74 33.1 43.5"/><polygon points="33.76 41.12 33.76 16.19 25.76 16.19 17.76 16.19 17.76 41.12 25.76 45.74 33.76 41.12"/><polygon class="cls-13" points="25.6 26.9 27.09 31.49 31.92 31.49 28.02 34.32 29.51 38.92 25.6 36.08 21.7 38.92 23.19 34.32 19.29 31.49 24.11 31.49 25.6 26.9"/><line class="cls-14" x1="41.53" y1="15.19" x2="9.99" y2="15.19"/><g class="cls-15"><line class="cls-16" x1="36.26" y1="15.19" x2="15.26" y2="15.19"/></g><polyline class="cls-17" points="25.76 6.63 20.81 6.63 16.86 11.85 25.64 20.31"/><line class="cls-17" x1="16.86" y1="11.85" x2="34.67" y2="11.85"/><line class="cls-17" x1="25.64" y1="20.31" x2="22.23" y2="11.85"/><line class="cls-17" x1="22.23" y1="11.85" x2="24.37" y2="6.63"/><polyline class="cls-17" points="25.76 6.63 30.71 6.63 34.67 11.85 25.89 20.31"/><line class="cls-17" x1="25.89" y1="20.31" x2="29.3" y2="11.85"/><line class="cls-17" x1="29.3" y1="11.85" x2="27.16" y2="6.63"/></svg>