<svg id="Bases" xmlns="http://www.w3.org/2000/svg" xmlns:xlink="http://www.w3.org/1999/xlink" width="52" height="52" viewBox="0 0 52 52"><defs><style>.cls-1{fill:#ff89c6;}.cls-2{fill:#e42f8a;}.cls-3{fill:#e42fb2;}.cls-4{fill:#dac0d2;}.cls-5{fill:#a896ac;}.cls-6{fill:url(#linear-gradient);}.cls-7{fill:url(#linear-gradient-2);}.cls-8{fill:#bc62a1;}.cls-9{fill:url(#linear-gradient-3);}.cls-10{fill:url(#linear-gradient-4);}.cls-11{fill:#231f20;opacity:0.55;}.cls-12{fill:#ec008c;}.cls-13{fill:#939598;}.cls-14{fill:url(#linear-gradient-5);}.cls-15{fill:#ffc4e6;}.cls-16{fill:url(#linear-gradient-6);}.cls-17{fill:url(#linear-gradient-7);}.cls-18{fill:url(#linear-gradient-8);}.cls-19{fill:#f1f2f2;}.cls-20{fill:url(#linear-gradient-9);}.cls-21{opacity:0.25;}.cls-22{fill:#e5bdd3;}</style><linearGradient id="linear-gradient" x1="10.64" y1="10.28" x2="38.3" y2="39.59" gradientUnits="userSpaceOnUse"><stop offset="0" stop-color="#cf0782"/><stop offset="1" stop-color="#cf0739"/></linearGradient><linearGradient id="linear-gradient-2" x1="-1.32" y1="21.57" x2="26.34" y2="50.88" xlink:href="#linear-gradient"/><linearGradient id="linear-gradient-3" x1="5.9" y1="16.53" x2="11.52" y2="40.15" gradientUnits="userSpaceOnUse"><stop offset="0" stop-color="#840f5b"/><stop offset="1" stop-color="#840f3b"/></linearGradient><linearGradient id="linear-gradient-4" x1="23.23" y1="13.73" x2="31.37" y2="38.94" xlink:href="#linear-gradient-3"/><linearGradient id="linear-gradient-5" x1="12.17" y1="11.79" x2="25.34" y2="44.74" gradientUnits="userSpaceOnUse"><stop offset="0" stop-color="#df1893"/><stop offset="1" stop-color="#de1857"/></linearGradient><linearGradient id="linear-gradient-6" x1="17.22" y1="13.44" x2="28.16" y2="47.12" gradientUnits="userSpaceOnUse"><stop offset="0" stop-color="#f099d0"/><stop offset="0.99" stop-color="#f099bf"/></linearGradient><linearGradient id="linear-gradient-7" x1="10.36" y1="10.34" x2="19.77" y2="39.33" xlink:href="#linear-gradient-6"/><linearGradient id="linear-gradient-8" x1="26.07" y1="16.35" x2="26.07" y2="16.35" xlink:href="#linear-gradient-3"/><linearGradient id="linear-gradient-9" x1="10.26" y1="0.78" x2="19.79" y2="30.1" xlink:href="#linear-gradient-6"/><symbol id="League_Champion_small" data-name="League_Champion_small" viewBox="0 0 36.33 47.72"><path class="cls-1" d="M23.15,47.72a1.39,1.39,0,0,1-1.39-1.39V41.85h1.78v3.64L30.12,40l1.14,1.37L24,47.4A1.41,1.41,0,0,1,23.15,47.72Z"/><path class="cls-1" d="M13.22,47.72a1.41,1.41,0,0,1-.89-.32l-7.22-6L6.25,40l6.57,5.47V41.85h1.79v4.48a1.39,1.39,0,0,1-1.39,1.39Z"/><path class="cls-2" d="M30.09,36.88,29,35.61l5.67-5V18.06h-2.8V16.37h3.54a1,1,0,0,1,.95.94V31a1,1,0,0,1-.32.71Z"/><path class="cls-3" d="M6.24,36.88.32,31.66A1,1,0,0,1,0,31V17.31a.94.94,0,0,1,.94-.94H4.53v1.69H1.69V30.62l5.67,5Z"/><path class="cls-4" d="M32.05,15.5H4.32a1.15,1.15,0,0,1-.83-.36L1.74,13.29a1.14,1.14,0,0,1,0-1.59L3.51,10a1.1,1.1,0,0,1,.8-.34H32.05a1.11,1.11,0,0,1,.81.34L34.6,11.7a1.13,1.13,0,0,1,0,1.59l-1.74,1.85A1.15,1.15,0,0,1,32.05,15.5ZM4.64,13.61H31.73l1-1.09-1-1H4.62l-1,1Z"/><rect class="cls-5" x="12.38" y="9.62" width="5.97" height="1.89"/><polygon class="cls-5" points="24.06 9.63 18.08 9.61 18.08 11.51 24.06 11.51 24.06 9.63"/><polygon class="cls-6" points="26.07 16.35 26.07 40.57 24.76 41.63 31.84 45.29 31.84 16.35 26.07 16.35"/><polygon class="cls-7" points="10.29 16.35 4.52 16.35 4.52 45.29 11.61 41.63 10.29 40.57 10.29 16.35"/><rect class="cls-8" x="4.52" y="13.09" width="5.77" height="3.26"/><rect class="cls-8" x="26.07" y="13.09" width="5.77" height="3.26"/><polygon class="cls-9" points="10.3 38.54 7.1 40.28 7.1 16.35 10.3 16.35 10.3 38.54"/><polygon class="cls-10" points="26.06 38.54 29.26 40.28 29.26 16.35 26.06 16.35 26.06 38.54"/><polygon class="cls-11" points="10.29 14.36 10.29 14.36 10.29 13.09 10.29 14.36"/><path class="cls-11" d="M27.66,14.91V13.09H26.07V40.57l-1.32,1,2.1,1.09.81-.65V19.29"/><path class="cls-11" d="M8.71,19.3V42.06l.8.65,2.1-1.08-1.32-1.06V13.09H8.71v1.82"/><path class="cls-11" d="M26.07,15.46v-1.1H10.29v1.1H26.07Z"/><polygon class="cls-11" points="26.07 13.09 26.07 14.36 26.07 14.36 26.07 13.09"/><path class="cls-12" d="M18.18,36.15"/><path class="cls-13" d="M18.18,34"/><polygon class="cls-14" points="18.18 13.09 10.29 13.09 10.29 40.57 18.18 46.86 26.07 40.57 26.07 13.09 18.18 13.09"/><polygon class="cls-15" points="18.18 21.45 13.04 17.24 13.04 20.23 18.18 24.5 23.33 20.23 23.33 17.24 18.18 21.45"/><polygon class="cls-15" points="13.04 35.5 13.04 38.88 18.18 43.14 23.33 38.88 23.33 35.5 18.18 39.72 13.04 35.5"/><polygon class="cls-16" points="23.33 17.24 23.29 15.45 13.06 15.45 13.04 17.24 18.18 21.45 23.33 17.24"/><polygon class="cls-17" points="13.04 32.9 13.04 36 18.18 40.22 23.33 36 23.33 32.9 18.18 37.11 13.04 32.9"/><path class="cls-18" d="M26.07,16.35"/><path class="cls-19" d="M22.5,10.34H13.9a1.06,1.06,0,0,1-1-.69l-2.2-6.1a1,1,0,0,1,1.36-1.16L14.87,3.9,17.42.4A1,1,0,0,1,18.2,0h0A1,1,0,0,1,19,.39L21.54,3.9l2.79-1.51a1,1,0,0,1,1.07.11,1,1,0,0,1,.28,1l-2.2,6.1A1,1,0,0,1,22.5,10.34ZM21.7,9Zm-7,0h0Zm-.2-.55h7.41l1.16-3.24-1.28.7a1,1,0,0,1-1.34-.3L18.2,2.53,16,5.61a1,1,0,0,1-1.34.3l-1.28-.7ZM22,4.5Zm-10.8-.45h0Z"/><polygon class="cls-15" points="13.04 26.67 13.04 29.64 18.18 33.91 23.33 29.64 23.33 26.67 18.18 30.89 13.04 26.67"/><polygon class="cls-20" points="13.04 23.57 13.04 26.77 18.18 30.98 23.33 26.77 23.33 23.57 18.18 27.78 13.04 23.57"/></symbol></defs><title>Champion 1 - Small</title><use width="36.33" height="47.72" transform="translate(7.68 2.2)" xlink:href="#League_Champion_small"/><polygon class="cls-21" points="31.8 41.57 31.64 22.27 25.83 22.27 19.85 22.27 19.85 41.57 25.83 46.35 31.8 41.57"/><polygon points="33.79 37.31 33.75 15.12 25.86 15.12 17.94 15.12 17.94 37.34 25.84 43.63 33.79 37.31"/><polygon class="cls-22" points="25.83 21.92 27.33 26.52 32.16 26.52 28.25 29.36 29.75 33.95 25.83 31.11 21.92 33.95 23.42 29.36 19.51 26.52 24.34 26.52 25.83 21.92"/></svg>