<svg xmlns="http://www.w3.org/2000/svg" xmlns:xlink="http://www.w3.org/1999/xlink" width="52" height="52" viewBox="0 0 52 52"><defs><style>.cls-1,.cls-6{fill:#7c2b00;}.cls-1,.cls-2,.cls-8{opacity:0;}.cls-2,.cls-4,.cls-8{fill:none;}.cls-2{stroke:#231f20;stroke-width:0.1px;}.cls-2,.cls-8{stroke-miterlimit:10;}.cls-3{fill:#900201;}.cls-4{stroke:#c8c8c8;stroke-linecap:round;stroke-linejoin:round;stroke-width:2px;}.cls-5{fill:#a0553c;opacity:0.5;}.cls-5,.cls-6{mix-blend-mode:screen;}.cls-6,.cls-9{opacity:0.25;}.cls-7{fill:#fff;}.cls-8{stroke:red;stroke-width:1.04px;}</style><symbol id="League_Copper_Small" data-name="League_Copper_Small" viewBox="0 0 52.1 52.1"><g id="League_Copper"><path class="cls-1" d="M26.05,46.93l18-10.4V15.73l-18-10.4L8,15.73v20.8Z"/><rect class="cls-2" x="0.05" y="0.05" width="52" height="52"/><polygon class="cls-3" points="12.01 38.83 26.05 46.93 40.09 38.83 40.09 14.85 12.01 14.85 12.01 38.83"/><polygon class="cls-4" points="26.05 11.28 23.08 7.05 26.05 5.33 29.03 7.05 26.05 11.28"/><path class="cls-5" d="M13.31,39.69l4.52,2.76L15,39.65V18.86H13.31ZM37.08,18.86v21L34,42.62l4.78-2.93V18.86Z"/><path class="cls-6" d="M15,19v-4.1H13.31V19m25.48,0V14.85H37.08V19"/><line class="cls-4" x1="41.82" y1="14.28" x2="10.28" y2="14.28"/></g></symbol><symbol id="Position_2_Small" data-name="Position_2_Small" viewBox="0 0 52.1 52.1"><g id="Position_2"><polygon class="cls-7" points="12.09 36.97 26.05 45.04 40.02 36.97 40.02 38.87 26.05 46.93 12.09 38.87 12.09 36.97"/><rect class="cls-2" x="0.05" y="0.05" width="52" height="52"/><polygon class="cls-8" points="8.04 15.73 26.05 5.33 44.07 15.73 44.07 36.53 26.05 46.93 8.04 36.53 8.04 15.73"/><polygon class="cls-9" points="33.39 42.7 33.39 23.05 26.05 23.05 18.72 23.05 18.72 42.7 26.05 46.93 33.39 42.7"/><polygon points="34.05 40.32 34.05 15.28 26.05 15.28 18.05 15.28 18.05 40.32 26.05 44.94 34.05 40.32"/><path class="cls-7" d="M22.55,32V21.82h1.93V32Z"/><path class="cls-7" d="M27.63,32V21.82h1.92V32Z"/><polygon class="cls-7" points="12.09 33.18 26.05 41.24 40.02 33.18 40.02 35.08 26.05 43.14 12.09 35.08 12.09 33.18"/></g></symbol></defs><title>Copper - 2 - Small</title><g id="Compound"><g id="Rank_Copper_4_Small"><g id="Rank_Copper_4"><use width="52.1" height="52.1" transform="translate(-0.05 -0.05)" xlink:href="#League_Copper_Small"/></g></g><use width="52.1" height="52.1" transform="translate(-0.05 -0.05)" xlink:href="#Position_2_Small"/></g></svg>