<svg xmlns="http://www.w3.org/2000/svg" xmlns:xlink="http://www.w3.org/1999/xlink" width="52" height="52" viewBox="0 0 52 52"><defs><style>.cls-1,.cls-5,.cls-8,.cls-9{fill:#bc783c;}.cls-1,.cls-12,.cls-2{opacity:0;}.cls-10,.cls-11,.cls-12,.cls-15,.cls-2{fill:none;}.cls-2{stroke:#231f20;stroke-width:0.1px;}.cls-12,.cls-2{stroke-miterlimit:10;}.cls-3{fill:#824720;}.cls-4{fill:#9b6127;}.cls-6{fill:#231f20;}.cls-13,.cls-6,.cls-9{opacity:0.25;}.cls-7{fill:#e5ad4a;}.cls-8,.cls-9{mix-blend-mode:screen;}.cls-10,.cls-11{stroke:#c8c8c8;stroke-linecap:round;stroke-linejoin:round;}.cls-10{stroke-width:2px;}.cls-11{stroke-width:1.8px;}.cls-12{stroke:red;stroke-width:1.04px;}.cls-14{fill:#fff;}</style><symbol id="League_Bronze_Small_2" data-name="League_Bronze_Small 2" viewBox="0 0 52.1 52.1"><g id="League_Bronze"><polygon class="cls-1" points="44.06 36.53 26.05 46.93 8.04 36.53 8.04 15.73 26.05 5.33 44.06 15.73 44.06 36.53"/><rect class="cls-2" x="0.05" y="0.05" width="52" height="52"/><polygon class="cls-3" points="12.01 35.7 26.05 43.8 40.09 35.7 40.09 14.85 12.01 14.85 12.01 35.7"/><polyline class="cls-4" points="38.79 14.85 38.79 18.75 13.31 18.75 13.31 14.74"/><polygon class="cls-5" points="13.31 39.58 26.05 46.93 38.79 39.58 38.79 18.75 13.31 18.75 13.31 39.58"/><rect class="cls-6" x="12.01" y="20.82" width="1.3" height="1.12"/><rect class="cls-6" x="38.79" y="20.82" width="1.3" height="1.12"/><polygon class="cls-7" points="38.99 39.46 26.05 46.93 13.11 39.46 26.05 47.36 38.99 39.46"/><path class="cls-8" d="M13.31,39.58l4.52,2.76L15,39.54V18.75H13.31ZM37.08,18.75v21L34,42.51l4.78-2.93V18.75Z"/><path class="cls-9" d="M15,18.84v-4.1H13.31v4.11m25.48,0V14.74H37.08v4.14"/><polygon class="cls-10" points="26.05 11.74 23.08 7.51 26.05 5.79 29.03 7.51 26.05 11.74"/><line class="cls-10" x1="41.82" y1="14.74" x2="10.28" y2="14.74"/><line class="cls-11" x1="26.05" y1="11.74" x2="26.05" y2="14.26"/></g></symbol></defs><title>Bronze - 4 - Small copy</title><g id="Bases"><use width="52.1" height="52.1" transform="translate(-0.05 -0.05)" xlink:href="#League_Bronze_Small_2"/></g><g id="Compound"><g id="Rank_Copper_4_Small-4" data-name="Rank_Copper_4_Small"><g id="Rank_Copper_4-5" data-name="Rank_Copper_4"><g id="Position_4_Small"><g id="Position_4"><polygon class="cls-12" points="7.99 16.14 26 5.74 44.01 16.14 44.01 36.94 26 47.34 7.99 36.94 7.99 16.14"/><polygon class="cls-12" points="11.23 35.07 26 26.54 40.77 35.07 40.77 35.07 26 43.6 11.23 35.07 11.23 35.07"/><rect class="cls-2" y="0.46" width="52" height="52"/><polygon class="cls-13" points="33.33 43.11 33.33 23.38 26 23.38 18.66 23.38 18.66 43.11 26 47.34 33.33 43.11"/><polygon points="34 40.73 34 15.69 26 15.69 18 15.69 18 40.73 26 45.34 34 40.73"/><path class="cls-14" d="M24.94,32.62,23,22.38h1.92l.75,4.28L26,29l.33-2.36.76-4.29H29l-1.9,10.24Z"/><polygon class="cls-15" points="40.04 16.14 26 16.13 11.96 16.14 11.96 39.24 26 47.34 40.04 39.24 40.04 16.14"/></g></g></g></g></g></svg>