<svg xmlns="http://www.w3.org/2000/svg" xmlns:xlink="http://www.w3.org/1999/xlink" width="52" height="52" viewBox="0 0 52 52"><defs><style>.cls-1,.cls-5,.cls-8,.cls-9{fill:#bc783c;}.cls-1,.cls-12,.cls-2{opacity:0;}.cls-10,.cls-11,.cls-12,.cls-13,.cls-2{fill:none;}.cls-2{stroke:#231f20;stroke-width:0.1px;}.cls-12,.cls-2{stroke-miterlimit:10;}.cls-3{fill:#824720;}.cls-4{fill:#9b6127;}.cls-6{fill:#231f20;}.cls-15,.cls-6,.cls-9{opacity:0.25;}.cls-7{fill:#e5ad4a;}.cls-8,.cls-9{mix-blend-mode:screen;}.cls-10,.cls-11{stroke:#c8c8c8;stroke-linecap:round;stroke-linejoin:round;}.cls-10{stroke-width:2px;}.cls-11{stroke-width:1.8px;}.cls-12{stroke:red;stroke-width:1.04px;}.cls-14{fill:#fff;}</style><symbol id="League_Bronze_Small_2" data-name="League_Bronze_Small 2" viewBox="0 0 52.1 52.1"><g id="League_Bronze"><polygon class="cls-1" points="44.06 36.53 26.05 46.93 8.04 36.53 8.04 15.73 26.05 5.33 44.06 15.73 44.06 36.53"/><rect class="cls-2" x="0.05" y="0.05" width="52" height="52"/><polygon class="cls-3" points="12.01 35.7 26.05 43.8 40.09 35.7 40.09 14.85 12.01 14.85 12.01 35.7"/><polyline class="cls-4" points="38.79 14.85 38.79 18.75 13.31 18.75 13.31 14.74"/><polygon class="cls-5" points="13.31 39.58 26.05 46.93 38.79 39.58 38.79 18.75 13.31 18.75 13.31 39.58"/><rect class="cls-6" x="12.01" y="20.82" width="1.3" height="1.12"/><rect class="cls-6" x="38.79" y="20.82" width="1.3" height="1.12"/><polygon class="cls-7" points="38.99 39.46 26.05 46.93 13.11 39.46 26.05 47.36 38.99 39.46"/><path class="cls-8" d="M13.31,39.58l4.52,2.76L15,39.54V18.75H13.31ZM37.08,18.75v21L34,42.51l4.78-2.93V18.75Z"/><path class="cls-9" d="M15,18.84v-4.1H13.31v4.11m25.48,0V14.74H37.08v4.14"/><polygon class="cls-10" points="26.05 11.74 23.08 7.51 26.05 5.79 29.03 7.51 26.05 11.74"/><line class="cls-10" x1="41.82" y1="14.74" x2="10.28" y2="14.74"/><line class="cls-11" x1="26.05" y1="11.74" x2="26.05" y2="14.26"/></g></symbol><symbol id="Position_3_Small" data-name="Position_3_Small" viewBox="0 0 52.1 52.1"><g id="Position_3"><rect class="cls-2" x="0.05" y="0.05" width="52" height="52"/><polygon class="cls-12" points="8.04 15.73 26.05 5.33 44.07 15.73 44.07 36.53 26.05 46.93 8.04 36.53 8.04 15.73"/><polygon class="cls-12" points="11.28 34.66 26.05 26.13 40.82 34.66 40.82 34.66 26.05 43.19 11.28 34.66 11.28 34.66"/><polygon class="cls-13" points="40.09 15.73 26.05 15.72 12.01 15.73 12.01 38.83 26.05 46.93 40.09 38.83 40.09 15.73"/><polygon class="cls-14" points="11.9 36.84 26.05 45.01 40.2 36.84 40.2 38.76 26.05 46.93 11.9 38.76 11.9 36.84"/><polygon class="cls-15" points="33.39 42.7 33.39 22.98 26.05 22.98 18.72 22.98 18.72 42.7 26.05 46.93 33.39 42.7"/><polygon points="34.05 40.32 34.05 15.28 26.05 15.28 18.05 15.28 18.05 40.32 26.05 44.93 34.05 40.32"/><path class="cls-14" d="M20,31.86V21.66H21.9v10.2Z"/><path class="cls-14" d="M25.05,31.86V21.66H27v10.2Z"/><path class="cls-14" d="M30.13,31.86V21.66h1.92v10.2Z"/></g></symbol></defs><title>Bronze - 3 - Small</title><g id="Bases"><use width="52.1" height="52.1" transform="translate(-0.05 -0.05)" xlink:href="#League_Bronze_Small_2"/></g><g id="Compound"><use width="52.1" height="52.1" transform="translate(-0.09 0.41)" xlink:href="#Position_3_Small"/></g></svg>