<?xml version="1.0" encoding="utf-8"?>
<!-- Generator: Adobe Illustrator 16.0.0, SVG Export Plug-In . SVG Version: 6.00 Build 0)  -->
<!DOCTYPE svg PUBLIC "-//W3C//DTD SVG 1.1//EN" "http://www.w3.org/Graphics/SVG/1.1/DTD/svg11.dtd">
<svg version="1.1" xmlns="http://www.w3.org/2000/svg" xmlns:xlink="http://www.w3.org/1999/xlink" x="0px" y="0px" width="52px"
	 height="52px" viewBox="0 0 52 52" enable-background="new 0 0 52 52" xml:space="preserve">
<symbol  id="League_x5F_Gold_x5F_Small" viewBox="-26.05 -26.05 52.1 52.1">
	<g id="League_x5F_Gold_2_">
		<polygon opacity="0" fill="#EDAF35" points="18.01,-10.48 0,-20.88 -18.01,-10.48 -18.01,10.32 0,20.72 18.01,10.32 		"/>
		<polygon opacity="0" fill="none" stroke="#231F20" stroke-width="0.104" stroke-miterlimit="10" points="26,-26 -26,-26 -26,26 
			26,26 		"/>
		<polygon fill="#CC932F" points="-14.04,-20.88 0,-17.76 14.04,-20.88 14.04,11.2 -14.04,11.2 		"/>
		<polyline fill="#CC932F" points="12.74,11.2 12.74,7.31 -12.74,7.31 -12.74,11.31 		"/>
		<polygon fill="#EDAF35" points="14.04,-20.88 14.04,-19.3 0,-16.18 -14.04,-19.3 -14.04,-20.88 0,-17.76 		"/>
		<polygon fill="#EDAF35" points="-12.74,-13.52 0,-20.88 12.74,-13.52 12.74,7.31 -12.74,7.31 		"/>
		<polygon opacity="0.25" fill="#231F20" points="-12.74,4.11 -14.04,4.11 -14.04,5.23 -12.74,5.23 		"/>
		<polygon opacity="0.25" fill="#231F20" points="14.04,4.11 12.74,4.11 12.74,5.23 14.04,5.23 		"/>
		<path opacity="0.25" fill="#231F20" d="M-12.74-15.6l6.25-3.61l2.59,0.58l-8.84,5.1V-15.6z M3.9-18.63l2.59-0.58l6.25,3.61v2.07
			L3.9-18.63z"/>
		<polygon fill="#FFC364" points="12.94,-13.41 0,-20.88 -12.94,-13.41 0,-21.31 		"/>
		<path fill="#EDAF35" d="M-12.74-13.52l4.52-2.76l-2.8,2.8v20.8h-1.72V-13.52z M11.02,7.31v-20.98l-3.07-2.78l4.79,2.93V7.31H11.02
			z"/>
		<g>
			<polygon fill="#CC932F" points="12.94,-13.52 12.94,-9.99 0,-2.52 -12.94,-9.99 -12.94,-13.52 0,-6.05 			"/>
			<polygon opacity="0.25" fill="#231F20" points="-12.94,-13.52 0,-6.05 12.94,-13.52 0,-6.91 			"/>
			<polygon fill="#FFFFFF" points="-12.94,-13.52 0,-6.05 12.94,-13.52 0,-5.63 			"/>
		</g>
		<path fill="#EDAF35" d="M-11.02-12.42v3.54l-0.88-0.51v-3.57 M11.96-12.93v3.5l-0.94,0.54v-3.54"/>
		<path opacity="0.25" fill="#EDAF35" d="M-11.02,7.1v4.1h-1.72V7.09 M12.74,7.09v4.11h-1.72V7.06"/>
		<g>
			<g>
				
					<line fill="none" stroke="#C8C8C8" stroke-width="2" stroke-linecap="round" stroke-linejoin="round" stroke-miterlimit="10" x1="15.77" y1="11.2" x2="-15.77" y2="11.2"/>
			</g>
			<g>
				
					<polyline fill="none" stroke="#C8C8C8" stroke-width="2" stroke-linecap="round" stroke-linejoin="round" stroke-miterlimit="10" points="
					-5.82,13.43 -7.88,16.37 -5.82,17.57 				"/>
				
					<line fill="none" stroke="#C8C8C8" stroke-width="2" stroke-linecap="round" stroke-linejoin="round" stroke-miterlimit="10" x1="-5.82" y1="13.43" x2="-5.82" y2="11.68"/>
			</g>
			<g>
				
					<polyline fill="none" stroke="#C8C8C8" stroke-width="2" stroke-linecap="round" stroke-linejoin="round" stroke-miterlimit="10" points="
					5.69,17.57 7.75,16.37 5.69,13.43 				"/>
				
					<line fill="none" stroke="#C8C8C8" stroke-width="2" stroke-linecap="round" stroke-linejoin="round" stroke-miterlimit="10" x1="5.69" y1="13.43" x2="5.69" y2="11.68"/>
			</g>
			
				<polygon fill="none" stroke="#FFFFFF" stroke-width="2" stroke-linecap="round" stroke-linejoin="round" stroke-miterlimit="10" points="
				0,14.77 -2.97,19 0,20.72 2.97,19 			"/>
			
				<line fill="none" stroke="#FFFFFF" stroke-width="1.8006" stroke-linecap="round" stroke-linejoin="round" stroke-miterlimit="10" x1="0" y1="14.77" x2="0" y2="12.25"/>
		</g>
	</g>
</symbol>
<symbol  id="Position_x5F_4_x5F_Small" viewBox="-26.05 -26.05 52.1 52.1">
	<g id="Position_x5F_4_2_">
		<polygon opacity="0" fill="none" stroke="#FF0000" stroke-width="1.04" stroke-miterlimit="10" points="-18.01,10.32 0,20.72 
			18.01,10.32 18.01,-10.48 0,-20.88 -18.01,-10.48 		"/>
		<polygon opacity="0" fill="none" stroke="#FF0000" stroke-width="1.04" stroke-miterlimit="10" points="-14.77,-8.61 0,-0.08 
			14.77,-8.61 14.77,-8.61 0,-17.14 -14.77,-8.61 		"/>
		<polygon opacity="0" fill="none" stroke="#231F20" stroke-width="0.104" stroke-miterlimit="10" points="26,-26 -26,-26 -26,26 
			26,26 		"/>
		<g>
			<polygon opacity="0.25" points="7.33,-16.65 7.33,3.08 0,3.08 -7.34,3.08 -7.34,-16.65 0,-20.88 			"/>
			<polygon points="8,-14.26 8,10.77 0,10.77 -8,10.77 -8,-14.26 0,-18.88 			"/>
			<g>
				<path fill="#FFFFFF" d="M-4.89-6.13v10.2h1.92v-10.2H-4.89z"/>
				<path fill="#FFFFFF" d="M1.63-6.16L-0.29,4.08h1.92l0.75-4.27l0.34-2.38l0.33,2.36l0.77,4.29h1.86L3.77-6.16H1.63z"/>
			</g>
		</g>
		<polygon fill="none" points="14.04,10.32 0,10.33 -14.04,10.32 -14.04,-12.78 0,-20.88 14.04,-12.78 		"/>
	</g>
</symbol>
<g id="Layer_1" display="none">
</g>
<g id="_x5B_HBE_x5D__-_Bg" display="none">
	<rect x="-20.05" y="-285.09" display="inline" fill="#3A3A3A" width="360.67" height="562.52"/>
</g>
<g id="_x5B_HBE_x5D__-_Struct" display="none">
	<g id="League_x5F_Bronze" display="inline">
	</g>
</g>
<g id="Bases">
	
		<use xlink:href="#League_x5F_Gold_x5F_Small"  width="52.1" height="52.1" id="XMLID_112_" x="-26.05" y="-26.05" transform="matrix(1 0 0 -1 26 26)" overflow="visible"/>
	<g id="League_x5F_Diamond_x5F_Small">
		<g id="League_x5F_Diamond">
		</g>
	</g>
</g>
<g id="Compound">
	<g id="Rank_x5F_Copper_x5F_4_x5F_Small_1_">
		<g id="Rank_x5F_Copper_x5F_4_2_">
		</g>
	</g>
	<g id="Rank_x5F_Copper_x5F_4_x5F_Small_2_">
		<g id="Rank_x5F_Copper_x5F_4_3_">
		</g>
	</g>
	<g id="Rank_x5F_Copper_x5F_4_5_">
		<g id="League_x5F_Copper">
		</g>
	</g>
	<g id="Rank_x5F_Copper_x5F_4_x5F_Small_4_">
		<g id="Rank_x5F_Copper_x5F_4_6_">
		</g>
	</g>
	<g id="Rank_x5F_Copper_x5F_4_x5F_Small_3_">
		<g id="Rank_x5F_Copper_x5F_4_4_">
			
				<use xlink:href="#Position_x5F_4_x5F_Small"  width="52.1" height="52.1" id="XMLID_113_" x="-26.05" y="-26.05" transform="matrix(1 0 0 -1 26 26.5703)" overflow="visible"/>
		</g>
	</g>
	<g id="Rank_x5F_Copper_x5F_4_x5F_Small">
		<g id="Rank_x5F_Copper_x5F_4">
		</g>
	</g>
	<g id="Position_x5F_1_x5F_Small">
		<g id="Position_x5F_1_1_">
		</g>
	</g>
	<g id="Rank_x5F_Copper_x5F_3">
	</g>
	<g id="Rank_x5F_Copper_x5F_2">
	</g>
	<g id="Rank_x5F_Copper_x5F_1">
	</g>
	<g id="Rank_x5F_Bronze_x5F_4">
	</g>
	<g id="Rank_x5F_Bronze_x5F_3">
	</g>
	<g id="Rank_x5F_Bronze_x5F_2">
	</g>
	<g id="Rank_x5F_Bronze_x5F_1">
	</g>
	<g id="Rank_x5F_Silver_x5F_4">
	</g>
	<g id="Rank_x5F_Silver_x5F_3">
	</g>
	<g id="Rank_x5F_Silver_x5F_2">
	</g>
	<g id="Rank_x5F_Silver_x5F_1">
	</g>
	<g id="Rank_x5F_Gold_x5F_4">
	</g>
	<g id="Rank_x5F_Gold_x5F_3">
	</g>
	<g id="Rank_x5F_Gold_x5F_2">
	</g>
	<g id="Rank_x5F_Gold_x5F_1">
	</g>
	<g id="Rank_x5F_Platinum_x5F_4">
	</g>
	<g id="Rank_x5F_Platinum_x5F_3">
	</g>
	<g id="Rank_x5F_Platinum_x5F_2">
	</g>
	<g id="Rank_x5F_Platinum_x5F_1">
		<g id="Position_x5F_1">
		</g>
	</g>
</g>
</svg>
