<svg xmlns="http://www.w3.org/2000/svg" xmlns:xlink="http://www.w3.org/1999/xlink" width="52" height="52" viewBox="0 0 52 52"><defs><style>.cls-1,.cls-6{fill:#7c2b00;}.cls-1,.cls-2,.cls-7{opacity:0;}.cls-10,.cls-2,.cls-4,.cls-7{fill:none;}.cls-2{stroke:#231f20;stroke-width:0.1px;}.cls-2,.cls-7{stroke-miterlimit:10;}.cls-3{fill:#900201;}.cls-4{stroke:#c8c8c8;stroke-linecap:round;stroke-linejoin:round;stroke-width:2px;}.cls-5{fill:#a0553c;opacity:0.5;}.cls-5,.cls-6{mix-blend-mode:screen;}.cls-6,.cls-8{opacity:0.25;}.cls-7{stroke:red;stroke-width:1.04px;}.cls-9{fill:#fff;}</style><symbol id="League_Copper_Small" data-name="League_Copper_Small" viewBox="0 0 52.1 52.1"><g id="League_Copper-2" data-name="League_Copper"><path class="cls-1" d="M26.05,46.93l18-10.4V15.73l-18-10.4L8,15.73v20.8Z"/><rect class="cls-2" x="0.05" y="0.05" width="52" height="52"/><polygon class="cls-3" points="12.01 38.83 26.05 46.93 40.09 38.83 40.09 14.85 12.01 14.85 12.01 38.83"/><polygon class="cls-4" points="26.05 11.28 23.08 7.05 26.05 5.33 29.03 7.05 26.05 11.28"/><path class="cls-5" d="M13.31,39.69l4.52,2.76L15,39.65V18.86H13.31ZM37.08,18.86v21L34,42.62l4.78-2.93V18.86Z"/><path class="cls-6" d="M15,19v-4.1H13.31V19m25.48,0V14.85H37.08V19"/><line class="cls-4" x1="41.82" y1="14.28" x2="10.28" y2="14.28"/></g></symbol></defs><title>Copper - 4 - Small copy</title><g id="Compound"><g id="Rank_Copper_4_Small-3" data-name="Rank_Copper_4_Small"><g id="Rank_Copper_4-4" data-name="Rank_Copper_4"><use width="52.1" height="52.1" transform="translate(-0.05 -0.05)" xlink:href="#League_Copper_Small"/><g id="Position_4_Small"><g id="Position_4"><polygon class="cls-7" points="7.99 15.68 26 5.28 44.01 15.68 44.01 36.48 26 46.88 7.99 36.48 7.99 15.68"/><polygon class="cls-7" points="11.23 34.61 26 26.08 40.77 34.61 40.77 34.61 26 43.14 11.23 34.61 11.23 34.61"/><rect class="cls-2" width="52" height="52"/><polygon class="cls-8" points="33.33 42.65 33.33 22.92 26 22.92 18.66 22.92 18.66 42.65 26 46.88 33.33 42.65"/><polygon points="34 40.27 34 15.23 26 15.23 18 15.23 18 40.27 26 44.88 34 40.27"/><path class="cls-9" d="M24.94,32.16,23,21.92h1.92l.75,4.27L26,28.57l.33-2.36.76-4.29H29l-1.9,10.24Z"/><polygon class="cls-10" points="40.04 15.68 26 15.67 11.96 15.68 11.96 38.77 26 46.88 40.04 38.77 40.04 15.68"/></g></g></g></g></g></svg>