<svg xmlns="http://www.w3.org/2000/svg" xmlns:xlink="http://www.w3.org/1999/xlink" width="52" height="52" viewBox="0 0 52 52"><defs><style>.cls-1,.cls-10,.cls-11{fill:#edaf35;}.cls-1,.cls-15,.cls-2{opacity:0;}.cls-12,.cls-13,.cls-14,.cls-16,.cls-2{fill:none;}.cls-2{stroke:#231f20;stroke-width:0.1px;}.cls-16,.cls-2{stroke-miterlimit:10;}.cls-3,.cls-8{fill:#b79f27;}.cls-4,.cls-7{fill:#efda3f;}.cls-10,.cls-11,.cls-4,.cls-8{mix-blend-mode:screen;}.cls-5{fill:#e6c815;}.cls-18,.cls-6{fill:#231f20;}.cls-11,.cls-17,.cls-6{opacity:0.25;}.cls-9{fill:#fff;}.cls-12{stroke:#c8c8c8;}.cls-12,.cls-13,.cls-14{stroke-linecap:round;stroke-linejoin:round;}.cls-12,.cls-13{stroke-width:2px;}.cls-13,.cls-14{stroke:#fff;}.cls-14{stroke-width:1.8px;}.cls-16{stroke:red;stroke-width:0.03px;}</style><symbol id="League_Gold_Small_2" data-name="League_Gold_Small 2" viewBox="0 0 52.1 52.16"><g id="League_Gold"><polygon class="cls-1" points="44.07 36.59 26.05 46.99 8.04 36.59 8.04 15.79 26.05 5.39 44.07 15.79 44.07 36.59"/><polygon class="cls-2" points="52.05 52.11 0.05 52.05 0.05 0.05 52.05 0.11 52.05 52.11"/><polygon class="cls-3" points="12.01 46.99 26.05 43.87 40.09 46.99 40.09 14.91 12.01 14.91 12.01 46.99"/><polyline class="cls-3" points="38.8 14.91 38.8 18.81 13.31 18.81 13.31 14.8"/><polygon class="cls-4" points="40.1 46.99 40.1 45.41 26.05 42.29 12.01 45.41 12.01 46.99 26.05 43.87 40.1 46.99"/><polygon class="cls-5" points="13.31 39.64 26.05 46.99 38.8 39.64 38.8 18.81 13.31 18.81 13.31 39.64"/><rect class="cls-6" x="12.01" y="20.88" width="1.3" height="1.12"/><rect class="cls-6" x="38.8" y="20.88" width="1.3" height="1.12"/><path class="cls-6" d="M13.31,41.71l6.25,3.61,2.59-.58-8.84-5.1Zm16.64,3,2.6.58,6.25-3.61V39.64Z"/><polygon class="cls-7" points="38.99 39.52 26.05 46.99 13.11 39.52 26.05 47.42 38.99 39.52"/><path class="cls-8" d="M13.31,39.64l4.52,2.76L15,39.6V18.81H13.31ZM37.08,18.81v21L34,42.57l4.79-2.93V18.81Z"/><polygon class="cls-3" points="38.99 39.64 38.99 36.1 26.05 28.63 13.11 36.1 13.11 39.64 26.05 32.17 38.99 39.64"/><polygon class="cls-6" points="13.11 39.64 26.05 32.17 38.99 39.64 26.05 33.03 13.11 39.64"/><polygon class="cls-9" points="13.11 39.64 26.05 32.17 38.99 39.64 26.05 31.74 13.11 39.64"/><path class="cls-10" d="M15,38.53V35l-.89.51v3.56M38,39v-3.5L37.08,35v3.53"/><path class="cls-11" d="M15,19v-4.1H13.31V19M38.8,19V14.91H37.08v4.14"/><line class="cls-12" x1="41.82" y1="14.91" x2="10.28" y2="14.91"/><polyline class="cls-12" points="20.24 12.68 18.17 9.74 20.24 8.55"/><line class="cls-12" x1="20.24" y1="12.68" x2="20.24" y2="14.43"/><polyline class="cls-12" points="31.74 8.55 33.81 9.74 31.74 12.68"/><line class="cls-12" x1="31.74" y1="12.68" x2="31.74" y2="14.43"/><polygon class="cls-13" points="26.05 11.34 23.08 7.11 26.05 5.39 29.03 7.11 26.05 11.34"/><line class="cls-14" x1="26.05" y1="11.34" x2="26.05" y2="13.86"/></g></symbol><symbol id="Position_1_Small" data-name="Position_1_Small" viewBox="0 0 52.1 52.1"><g id="Position_1"><polygon class="cls-9" points="11.95 36.88 26.05 45.02 40.15 36.88 40.15 38.79 26.05 46.93 11.95 38.79 11.95 36.88"/><g class="cls-15"><polygon class="cls-16" points="8.04 15.73 26.05 5.33 44.07 15.73 44.07 36.53 26.05 46.93 8.04 36.53 8.04 15.73"/><polygon class="cls-16" points="11.28 34.66 26.05 26.13 40.82 34.66 40.82 34.66 26.05 43.19 11.28 34.66 11.28 34.66"/></g><rect class="cls-2" x="0.05" y="0.05" width="52" height="52"/><polygon class="cls-17" points="33.39 42.59 33.39 23.06 26.05 23.06 18.72 23.06 18.72 42.59 26.05 46.83 33.39 42.59"/><polygon points="34.05 40.21 34.05 15.28 26.05 15.28 18.05 15.28 18.05 40.21 26.05 44.83 34.05 40.21"/><polygon class="cls-9" points="11.95 33.05 26.05 41.19 40.15 33.05 40.15 34.96 26.05 43.1 11.95 34.96 11.95 33.05"/><polygon class="cls-18" points="33.52 34.96 26.05 30.66 18.59 34.96 18.59 33.05 26.05 28.74 33.52 33.05 33.52 34.96"/><polygon class="cls-9" points="11.95 29.22 26.05 37.36 40.15 29.22 40.15 31.13 26.05 39.27 11.95 31.13 11.95 29.22"/><polygon class="cls-9" points="25.95 19.98 27.44 24.57 32.27 24.57 28.36 27.41 29.86 32 25.95 29.16 22.05 32 23.54 27.41 19.63 24.57 24.46 24.57 25.95 19.98"/></g></symbol></defs><title>Gold - 1 - Small</title><g id="Bases"><use width="52.1" height="52.16" transform="translate(-0.05 -0.11)" xlink:href="#League_Gold_Small_2"/></g><g id="Compound"><use width="52.1" height="52.1" transform="translate(-0.05 0.52)" xlink:href="#Position_1_Small"/></g></svg>