<svg xmlns="http://www.w3.org/2000/svg" xmlns:xlink="http://www.w3.org/1999/xlink" width="52" height="52" viewBox="0 0 52 52"><defs><style>.cls-1,.cls-6{fill:#7c2b00;}.cls-1,.cls-2,.cls-8{opacity:0;}.cls-2,.cls-4,.cls-9{fill:none;}.cls-2{stroke:#231f20;stroke-width:0.1px;}.cls-2,.cls-9{stroke-miterlimit:10;}.cls-3{fill:#900201;}.cls-4{stroke:#c8c8c8;stroke-linecap:round;stroke-linejoin:round;stroke-width:2px;}.cls-5{fill:#a0553c;opacity:0.5;}.cls-5,.cls-6{mix-blend-mode:screen;}.cls-10,.cls-6{opacity:0.25;}.cls-7{fill:#fff;}.cls-9{stroke:red;stroke-width:0.03px;}.cls-11{fill:#231f20;}</style><symbol id="League_Copper_Small" data-name="League_Copper_Small" viewBox="0 0 52.1 52.1"><g id="League_Copper"><path class="cls-1" d="M26.05,46.93l18-10.4V15.73l-18-10.4L8,15.73v20.8Z"/><rect class="cls-2" x="0.05" y="0.05" width="52" height="52"/><polygon class="cls-3" points="12.01 38.83 26.05 46.93 40.09 38.83 40.09 14.85 12.01 14.85 12.01 38.83"/><polygon class="cls-4" points="26.05 11.28 23.08 7.05 26.05 5.33 29.03 7.05 26.05 11.28"/><path class="cls-5" d="M13.31,39.69l4.52,2.76L15,39.65V18.86H13.31ZM37.08,18.86v21L34,42.62l4.78-2.93V18.86Z"/><path class="cls-6" d="M15,19v-4.1H13.31V19m25.48,0V14.85H37.08V19"/><line class="cls-4" x1="41.82" y1="14.28" x2="10.28" y2="14.28"/></g></symbol><symbol id="Position_1_Small" data-name="Position_1_Small" viewBox="0 0 52.1 52.1"><g id="Position_1"><polygon class="cls-7" points="11.95 36.88 26.05 45.02 40.15 36.88 40.15 38.79 26.05 46.93 11.95 38.79 11.95 36.88"/><g class="cls-8"><polygon class="cls-9" points="8.04 15.73 26.05 5.33 44.07 15.73 44.07 36.53 26.05 46.93 8.04 36.53 8.04 15.73"/><polygon class="cls-9" points="11.28 34.66 26.05 26.13 40.82 34.66 40.82 34.66 26.05 43.19 11.28 34.66 11.28 34.66"/></g><rect class="cls-2" x="0.05" y="0.05" width="52" height="52"/><polygon class="cls-10" points="33.39 42.59 33.39 23.06 26.05 23.06 18.72 23.06 18.72 42.59 26.05 46.83 33.39 42.59"/><polygon points="34.05 40.21 34.05 15.28 26.05 15.28 18.05 15.28 18.05 40.21 26.05 44.83 34.05 40.21"/><polygon class="cls-7" points="11.95 33.05 26.05 41.19 40.15 33.05 40.15 34.96 26.05 43.1 11.95 34.96 11.95 33.05"/><polygon class="cls-11" points="33.52 34.96 26.05 30.66 18.59 34.96 18.59 33.05 26.05 28.74 33.52 33.05 33.52 34.96"/><polygon class="cls-7" points="11.95 29.22 26.05 37.36 40.15 29.22 40.15 31.13 26.05 39.27 11.95 31.13 11.95 29.22"/><polygon class="cls-7" points="25.95 19.98 27.44 24.57 32.27 24.57 28.36 27.41 29.86 32 25.95 29.16 22.05 32 23.54 27.41 19.63 24.57 24.46 24.57 25.95 19.98"/></g></symbol></defs><title>Copper - 1 - Small</title><g id="Compound"><g id="Rank_Copper_4_Small-2" data-name="Rank_Copper_4_Small"><g id="Rank_Copper_4-2" data-name="Rank_Copper_4"><use width="52.1" height="52.1" transform="translate(0.05 0)" xlink:href="#League_Copper_Small"/></g></g><use width="52.1" height="52.1" transform="translate(0.05 0)" xlink:href="#Position_1_Small"/></g></svg>